<?xml version="1.0" standalone="no"?><!DOCTYPE svg PUBLIC "-//W3C//DTD SVG 1.1//EN" "http://www.w3.org/Graphics/SVG/1.1/DTD/svg11.dtd"><svg t="1483554938039" class="icon" style="" viewBox="0 0 1024 1024" version="1.1" xmlns="http://www.w3.org/2000/svg" p-id="2686" xmlns:xlink="http://www.w3.org/1999/xlink" width="200" height="200"><defs><style type="text/css"></style></defs><path d="M826.496 165.888 197.376 165.888c-36.928 0-71.36 16.32-96.96 46.016C78.592 237.12 65.536 269.248 65.536 297.792l0 436.672c0 68.224 55.488 123.712 123.712 123.712l645.568 0c68.16 0 123.648-55.488 123.648-123.712L958.464 294.4C958.4 227.136 895.488 165.888 826.496 165.888zM908.8 441.408l0 293.056c0 40.896-33.216 74.176-74.048 74.176L189.184 808.64c-40.896 0-74.176-33.28-74.176-74.176L115.008 441.408 908.8 441.408zM908.8 294.4l0 42.56L115.008 336.96 115.008 297.792c0-32.832 32.832-82.432 82.368-82.432l629.184 0C868.8 215.36 908.8 253.76 908.8 294.4z" p-id="2687"></path><path d="M358.528 717.696 281.792 510.4 247.68 510.4 341.824 752.32 375.04 752.32 469.12 510.4 434.688 510.4Z" p-id="2688"></path><path d="M502.144 510.4 534.656 510.4 534.656 752.32 502.144 752.32 502.144 510.4Z" p-id="2689"></path><path d="M769.344 546.688C764.8 537.6 758.656 530.432 751.104 525.12c-7.68-5.44-16.384-9.28-26.304-11.456-9.984-2.24-20.224-3.2-30.912-3.2L592.576 510.464l0 241.92 31.68 0 0-96.704 61.184 0c30.08 0 52.8-6.272 68.032-18.816 15.232-12.544 22.784-31.232 22.784-56C776.192 567.104 773.888 555.776 769.344 546.688zM739.776 601.088c-2.048 5.696-5.376 10.304-9.856 14.08-4.544 3.776-10.432 6.528-17.6 8.576-7.168 2.048-16.128 3.008-26.688 3.008L624.192 626.752 624.192 538.88l64 0c7.488 0 14.656 0.64 21.376 1.92 6.656 1.216 12.544 3.52 17.408 6.784 4.992 3.2 8.896 7.616 11.648 13.248s4.16 12.48 4.16 20.8C742.848 588.928 741.824 595.456 739.776 601.088z" p-id="2690"></path></svg>