<?xml version="1.0" standalone="no"?><!DOCTYPE svg PUBLIC "-//W3C//DTD SVG 1.1//EN" "http://www.w3.org/Graphics/SVG/1.1/DTD/svg11.dtd"><svg t="1483687996916" class="icon" style="" viewBox="0 0 1024 1024" version="1.1" xmlns="http://www.w3.org/2000/svg" p-id="3872" xmlns:xlink="http://www.w3.org/1999/xlink" width="200" height="200"><defs><style type="text/css"></style></defs><path d="M512 1024C229.2224 1024 0 794.7776 0 512 0 229.2224 229.2224 0 512 0 794.7776 0 1024 229.2224 1024 512 1024 794.7776 794.7776 1024 512 1024ZM512 56.8832C260.642133 56.8832 56.8832 260.642133 56.8832 512 56.8832 763.357867 260.642133 967.1168 512 967.1168 763.357867 967.1168 967.1168 763.357867 967.1168 512 967.1168 260.642133 763.357867 56.8832 512 56.8832ZM512 824.8832C339.2 824.8832 199.1168 684.8 199.1168 512 199.1168 339.2 339.2 199.1168 512 199.1168 684.8 199.1168 824.8832 339.2 824.8832 512 824.8832 684.8 684.8 824.8832 512 824.8832ZM503.876267 407.978667 416.9216 321.024C406.135467 310.237867 388.676267 310.237867 377.9072 321.024 367.138133 331.793067 367.138133 349.252267 377.9072 360.021333L464.861867 446.976C475.630933 457.745067 493.090133 457.745067 503.876267 446.976 514.645333 436.206933 514.645333 418.747733 503.876267 407.978667ZM646.0928 321.024C635.323733 310.237867 617.864533 310.237867 607.0784 321.024L520.123733 407.978667C509.354667 418.747733 509.354667 436.206933 520.123733 446.976 530.8928 457.745067 548.369067 457.745067 559.138133 446.976L646.0928 360.021333C656.861867 349.252267 656.861867 331.793067 646.0928 321.024ZM654.216533 512C669.934933 512 682.666667 499.268267 682.666667 483.549867 682.666667 467.848533 669.934933 455.1168 654.216533 455.1168L369.783467 455.1168C354.065067 455.1168 341.333333 467.848533 341.333333 483.549867 341.333333 499.268267 354.065067 512 369.783467 512L483.549867 512 483.549867 568.8832 369.783467 568.8832C354.065067 568.8832 341.333333 581.614933 341.333333 597.333333 341.333333 613.034667 354.065067 625.783467 369.783467 625.783467L483.549867 625.783467 483.549867 682.666667C483.549867 698.368 496.2816 711.1168 512 711.1168 527.701333 711.1168 540.450133 698.368 540.450133 682.666667L540.450133 625.783467 654.216533 625.783467C669.934933 625.783467 682.666667 613.034667 682.666667 597.333333 682.666667 581.614933 669.934933 568.8832 654.216533 568.8832L540.450133 568.8832 540.450133 512 654.216533 512Z" p-id="3873"></path></svg>