<?xml version="1.0" standalone="no"?><!DOCTYPE svg PUBLIC "-//W3C//DTD SVG 1.1//EN" "http://www.w3.org/Graphics/SVG/1.1/DTD/svg11.dtd"><svg t="1483896665797" class="icon" style="" viewBox="0 0 1024 1024" version="1.1" xmlns="http://www.w3.org/2000/svg" p-id="10724" xmlns:xlink="http://www.w3.org/1999/xlink" width="200" height="200"><defs><style type="text/css"></style></defs><path d="M512 1024c-281.6 0-512-230.4-512-512s230.4-512 512-512 512 230.4 512 512S793.6 1024 512 1024zM512 32C249.6 32 32 249.6 32 512s217.6 480 480 480 480-217.6 480-480S774.4 32 512 32z" p-id="10725"></path><path d="M332.8 320l38.4 0L371.2 281.6 332.8 281.6 332.8 320zM384 537.6l256 0L640 499.2 384 499.2 384 537.6zM332.8 646.4l38.4 0L371.2 608 332.8 608 332.8 646.4zM332.8 537.6l38.4 0L371.2 499.2 332.8 499.2 332.8 537.6zM332.8 428.8l38.4 0L371.2 390.4 332.8 390.4 332.8 428.8zM384 428.8l256 0L640 390.4 384 390.4 384 428.8zM384 320l256 0L640 281.6 384 281.6 384 320zM748.8 595.2 748.8 256c0-38.4-38.4-64-76.8-64l-384 0C249.6 192 224 217.6 224 256l0 454.4c0 38.4 32 76.8 70.4 76.8l281.6 0c25.6 19.2 57.6 44.8 96 44.8 70.4 0 134.4-57.6 134.4-128C800 659.2 787.2 620.8 748.8 595.2zM384 608l0 38.4 166.4 0c-6.4 19.2-12.8 38.4-12.8 57.6 0 19.2 6.4 32 12.8 51.2l-256 0c-19.2 0-32-19.2-32-38.4L262.4 256c0-19.2 12.8-25.6 32-25.6l384 0c19.2 0 38.4 6.4 38.4 25.6l0 320c-19.2-6.4-25.6-6.4-38.4-6.4C633.6 569.6 601.6 582.4 576 608L384 608zM640 768 576 697.6l25.6-19.2 44.8 51.2 102.4-89.6 19.2 19.2L640 768z" p-id="10726"></path></svg>